<svg width="27" height="24" viewBox="0 0 27 24" fill="none" xmlns="http://www.w3.org/2000/svg">
<path fill-rule="evenodd" clip-rule="evenodd" d="M13.5 13C14.1213 13 14.625 12.5523 14.625 12C14.625 11.4477 14.1213 11 13.5 11C12.8787 11 12.375 11.4477 12.375 12C12.375 12.5523 12.8787 13 13.5 13Z" stroke="#5F5F5F"/>
<path fill-rule="evenodd" clip-rule="evenodd" d="M6.75 13C7.37132 13 7.875 12.5523 7.875 12C7.875 11.4477 7.37132 11 6.75 11C6.12868 11 5.625 11.4477 5.625 12C5.625 12.5523 6.12868 13 6.75 13Z" stroke="#5F5F5F"/>
<path fill-rule="evenodd" clip-rule="evenodd" d="M20.25 13C20.8713 13 21.375 12.5523 21.375 12C21.375 11.4477 20.8713 11 20.25 11C19.6287 11 19.125 11.4477 19.125 12C19.125 12.5523 19.6287 13 20.25 13Z" stroke="#5F5F5F"/>
</svg>
