<svg width="869" height="181" viewBox="0 0 869 181" fill="none" xmlns="http://www.w3.org/2000/svg">
<mask id="path-1-outside-1_102_923" maskUnits="userSpaceOnUse" x="0" y="23" width="752" height="158" fill="black">
<rect fill="white" y="23" width="752" height="158"/>
<path d="M66 27C68.9333 27 71.8 27.4 74.6 28.2C77.4 29 79.7333 30.3333 81.6 32.2C83.4667 33.9333 84.4 36.2667 84.4 39.2C84.4 42.5333 83.4 45.2 81.4 47.2C79.5333 49.0667 77.3333 50 74.8 50C73.6 50 71.8 49.7333 69.4 49.2C67 48.5333 64.6667 48.2 62.4 48.2C59.0667 48.2 56.4667 48.9333 54.6 50.4C52.8667 51.8667 51.6667 53.6 51 55.6C50.3333 57.4667 50 59.1333 50 60.6V162.8C50 166.267 48.8667 169.2 46.6 171.6C44.3333 173.867 41.4667 175 38 175C34.5333 175 31.6667 173.867 29.4 171.6C27.1333 169.2 26 166.267 26 162.8V60.8C26 51.3333 29.3333 43.3333 36 36.8C42.6667 30.2667 52.6667 27 66 27ZM68.2 70C71.4 70 74.0667 71.0667 76.2 73.2C78.3333 75.2 79.4 77.8 79.4 81C79.4 84.2 78.3333 86.8667 76.2 89C74.0667 91 71.4 92 68.2 92H15.2C12 92 9.33333 91 7.2 89C5.06667 86.8667 4 84.2 4 81C4 77.8 5.06667 75.2 7.2 73.2C9.33333 71.0667 12 70 15.2 70H68.2Z"/>
<path d="M110.305 175C106.838 175 103.971 173.867 101.705 171.6C99.438 169.2 98.3047 166.267 98.3047 162.8V80.2C98.3047 76.7333 99.438 73.8667 101.705 71.6C103.971 69.2 106.838 68 110.305 68C113.771 68 116.638 69.2 118.905 71.6C121.171 73.8667 122.305 76.7333 122.305 80.2V99L120.905 85.6C122.371 82.4 124.238 79.6 126.505 77.2C128.905 74.6667 131.571 72.6 134.505 71C137.438 69.2667 140.571 68 143.905 67.2C147.238 66.4 150.571 66 153.905 66C157.905 66 161.238 67.1333 163.905 69.4C166.705 71.6667 168.105 74.3333 168.105 77.4C168.105 81.8 166.971 85 164.705 87C162.438 88.8667 159.971 89.8 157.305 89.8C154.771 89.8 152.438 89.3333 150.305 88.4C148.305 87.4667 145.971 87 143.305 87C140.905 87 138.438 87.6 135.905 88.8C133.505 89.8667 131.238 91.6 129.105 94C127.105 96.4 125.438 99.4 124.105 103C122.905 106.467 122.305 110.6 122.305 115.4V162.8C122.305 166.267 121.171 169.2 118.905 171.6C116.638 173.867 113.771 175 110.305 175Z"/>
<path d="M264.423 68C267.89 68 270.757 69.2 273.023 71.6C275.29 73.8667 276.423 76.7333 276.423 80.2V131C276.423 145.133 272.49 156.333 264.623 164.6C256.757 172.867 245.423 177 230.623 177C215.823 177 204.49 172.867 196.623 164.6C188.89 156.333 185.023 145.133 185.023 131V80.2C185.023 76.7333 186.157 73.8667 188.423 71.6C190.69 69.2 193.557 68 197.023 68C200.49 68 203.357 69.2 205.623 71.6C207.89 73.8667 209.023 76.7333 209.023 80.2V131C209.023 139.133 210.823 145.2 214.423 149.2C218.023 153.067 223.423 155 230.623 155C237.957 155 243.423 153.067 247.023 149.2C250.623 145.2 252.423 139.133 252.423 131V80.2C252.423 76.7333 253.557 73.8667 255.823 71.6C258.09 69.2 260.957 68 264.423 68Z"/>
<path d="M303.606 70H351.006C354.206 70 356.873 71.0667 359.006 73.2C361.14 75.3333 362.206 78 362.206 81.2C362.206 84.2667 361.14 86.8667 359.006 89C356.873 91 354.206 92 351.006 92H303.606C300.406 92 297.74 90.9333 295.606 88.8C293.473 86.6667 292.406 84 292.406 80.8C292.406 77.7333 293.473 75.2 295.606 73.2C297.74 71.0667 300.406 70 303.606 70ZM325.006 45C328.473 45 331.273 46.2 333.406 48.6C335.673 50.8667 336.806 53.7333 336.806 57.2V146.2C336.806 148.067 337.14 149.6 337.806 150.8C338.606 152 339.606 152.867 340.806 153.4C342.14 153.933 343.54 154.2 345.006 154.2C346.606 154.2 348.073 153.933 349.406 153.4C350.74 152.733 352.273 152.4 354.006 152.4C355.873 152.4 357.54 153.267 359.006 155C360.606 156.733 361.406 159.133 361.406 162.2C361.406 165.933 359.34 169 355.206 171.4C351.206 173.8 346.873 175 342.206 175C339.406 175 336.273 174.8 332.806 174.4C329.473 173.867 326.273 172.733 323.206 171C320.273 169.133 317.806 166.333 315.806 162.6C313.806 158.867 312.806 153.733 312.806 147.2V57.2C312.806 53.7333 313.94 50.8667 316.206 48.6C318.606 46.2 321.54 45 325.006 45Z"/>
<path d="M406.842 162.8C406.842 166.267 405.709 169.2 403.442 171.6C401.176 173.867 398.309 175 394.842 175C391.376 175 388.509 173.867 386.242 171.6C383.976 169.2 382.842 166.267 382.842 162.8V80.2C382.842 76.7333 383.976 73.8667 386.242 71.6C388.509 69.2 391.376 68 394.842 68C398.309 68 401.176 69.2 403.442 71.6C405.709 73.8667 406.842 76.7333 406.842 80.2V162.8ZM394.642 55C390.109 55 386.909 54.2667 385.042 52.8C383.176 51.3333 382.242 48.7333 382.242 45V41.2C382.242 37.3333 383.242 34.7333 385.242 33.4C387.376 31.9333 390.576 31.2 394.842 31.2C399.509 31.2 402.776 31.9333 404.642 33.4C406.509 34.8667 407.442 37.4667 407.442 41.2V45C407.442 48.8667 406.442 51.5333 404.442 53C402.442 54.3333 399.176 55 394.642 55Z"/>
<path d="M486.508 27C489.441 27 492.308 27.4 495.108 28.2C497.908 29 500.241 30.3333 502.108 32.2C503.974 33.9333 504.908 36.2667 504.908 39.2C504.908 42.5333 503.908 45.2 501.908 47.2C500.041 49.0667 497.841 50 495.308 50C494.108 50 492.308 49.7333 489.908 49.2C487.508 48.5333 485.174 48.2 482.908 48.2C479.574 48.2 476.974 48.9333 475.108 50.4C473.374 51.8667 472.174 53.6 471.508 55.6C470.841 57.4667 470.508 59.1333 470.508 60.6V162.8C470.508 166.267 469.374 169.2 467.108 171.6C464.841 173.867 461.974 175 458.508 175C455.041 175 452.174 173.867 449.908 171.6C447.641 169.2 446.508 166.267 446.508 162.8V60.8C446.508 51.3333 449.841 43.3333 456.508 36.8C463.174 30.2667 473.174 27 486.508 27ZM488.708 70C491.908 70 494.574 71.0667 496.708 73.2C498.841 75.2 499.908 77.8 499.908 81C499.908 84.2 498.841 86.8667 496.708 89C494.574 91 491.908 92 488.708 92H435.708C432.508 92 429.841 91 427.708 89C425.574 86.8667 424.508 84.2 424.508 81C424.508 77.8 425.574 75.2 427.708 73.2C429.841 71.0667 432.508 70 435.708 70H488.708Z"/>
<path d="M563.158 177C551.825 177 541.958 174.667 533.558 170C525.291 165.2 518.891 158.733 514.358 150.6C509.958 142.467 507.758 133.267 507.758 123C507.758 111 510.158 100.8 514.958 92.4C519.891 83.8667 526.291 77.3333 534.158 72.8C542.024 68.2667 550.358 66 559.158 66C565.958 66 572.358 67.4 578.358 70.2C584.491 73 589.891 76.8667 594.558 81.8C599.224 86.6 602.891 92.2 605.558 98.6C608.358 105 609.758 111.8 609.758 119C609.624 122.2 608.358 124.8 605.958 126.8C603.558 128.8 600.758 129.8 597.558 129.8H521.158L515.158 109.8H588.558L584.158 113.8V108.4C583.891 104.533 582.491 101.067 579.958 98C577.558 94.9333 574.491 92.5333 570.758 90.8C567.158 88.9333 563.291 88 559.158 88C555.158 88 551.424 88.5333 547.958 89.6C544.491 90.6667 541.491 92.4667 538.958 95C536.424 97.5333 534.424 100.933 532.958 105.2C531.491 109.467 530.758 114.867 530.758 121.4C530.758 128.6 532.224 134.733 535.158 139.8C538.224 144.733 542.091 148.533 546.758 151.2C551.558 153.733 556.625 155 561.958 155C566.891 155 570.824 154.6 573.758 153.8C576.691 153 579.024 152.067 580.758 151C582.624 149.8 584.291 148.8 585.758 148C588.158 146.8 590.424 146.2 592.558 146.2C595.491 146.2 597.891 147.2 599.758 149.2C601.758 151.2 602.758 153.533 602.758 156.2C602.758 159.8 600.891 163.067 597.158 166C593.691 168.933 588.824 171.533 582.558 173.8C576.291 175.933 569.825 177 563.158 177Z"/>
<path d="M653.327 162.8C653.327 166.267 652.193 169.2 649.927 171.6C647.66 173.867 644.793 175 641.327 175C637.86 175 634.993 173.867 632.727 171.6C630.46 169.2 629.327 166.267 629.327 162.8V80.2C629.327 76.7333 630.46 73.8667 632.727 71.6C634.993 69.2 637.86 68 641.327 68C644.793 68 647.66 69.2 649.927 71.6C652.193 73.8667 653.327 76.7333 653.327 80.2V162.8ZM641.127 55C636.593 55 633.393 54.2667 631.527 52.8C629.66 51.3333 628.727 48.7333 628.727 45V41.2C628.727 37.3333 629.727 34.7333 631.727 33.4C633.86 31.9333 637.06 31.2 641.327 31.2C645.993 31.2 649.26 31.9333 651.127 33.4C652.993 34.8667 653.927 37.4667 653.927 41.2V45C653.927 48.8667 652.927 51.5333 650.927 53C648.927 54.3333 645.66 55 641.127 55Z"/>
<path d="M689.992 175C686.526 175 683.659 173.867 681.392 171.6C679.126 169.2 677.992 166.267 677.992 162.8V80.2C677.992 76.7333 679.126 73.8667 681.392 71.6C683.659 69.2 686.526 68 689.992 68C693.459 68 696.326 69.2 698.592 71.6C700.859 73.8667 701.992 76.7333 701.992 80.2V99L700.592 85.6C702.059 82.4 703.926 79.6 706.192 77.2C708.592 74.6667 711.259 72.6 714.192 71C717.126 69.2667 720.259 68 723.592 67.2C726.925 66.4 730.259 66 733.592 66C737.592 66 740.925 67.1333 743.592 69.4C746.392 71.6667 747.792 74.3333 747.792 77.4C747.792 81.8 746.659 85 744.392 87C742.126 88.8667 739.659 89.8 736.992 89.8C734.459 89.8 732.126 89.3333 729.992 88.4C727.992 87.4667 725.659 87 722.992 87C720.592 87 718.125 87.6 715.592 88.8C713.192 89.8667 710.926 91.6 708.792 94C706.792 96.4 705.125 99.4 703.792 103C702.592 106.467 701.992 110.6 701.992 115.4V162.8C701.992 166.267 700.859 169.2 698.592 171.6C696.326 173.867 693.459 175 689.992 175Z"/>
</mask>
<path d="M66 27C68.9333 27 71.8 27.4 74.6 28.2C77.4 29 79.7333 30.3333 81.6 32.2C83.4667 33.9333 84.4 36.2667 84.4 39.2C84.4 42.5333 83.4 45.2 81.4 47.2C79.5333 49.0667 77.3333 50 74.8 50C73.6 50 71.8 49.7333 69.4 49.2C67 48.5333 64.6667 48.2 62.4 48.2C59.0667 48.2 56.4667 48.9333 54.6 50.4C52.8667 51.8667 51.6667 53.6 51 55.6C50.3333 57.4667 50 59.1333 50 60.6V162.8C50 166.267 48.8667 169.2 46.6 171.6C44.3333 173.867 41.4667 175 38 175C34.5333 175 31.6667 173.867 29.4 171.6C27.1333 169.2 26 166.267 26 162.8V60.8C26 51.3333 29.3333 43.3333 36 36.8C42.6667 30.2667 52.6667 27 66 27ZM68.2 70C71.4 70 74.0667 71.0667 76.2 73.2C78.3333 75.2 79.4 77.8 79.4 81C79.4 84.2 78.3333 86.8667 76.2 89C74.0667 91 71.4 92 68.2 92H15.2C12 92 9.33333 91 7.2 89C5.06667 86.8667 4 84.2 4 81C4 77.8 5.06667 75.2 7.2 73.2C9.33333 71.0667 12 70 15.2 70H68.2Z" fill="#6DC82A"/>
<path d="M110.305 175C106.838 175 103.971 173.867 101.705 171.6C99.438 169.2 98.3047 166.267 98.3047 162.8V80.2C98.3047 76.7333 99.438 73.8667 101.705 71.6C103.971 69.2 106.838 68 110.305 68C113.771 68 116.638 69.2 118.905 71.6C121.171 73.8667 122.305 76.7333 122.305 80.2V99L120.905 85.6C122.371 82.4 124.238 79.6 126.505 77.2C128.905 74.6667 131.571 72.6 134.505 71C137.438 69.2667 140.571 68 143.905 67.2C147.238 66.4 150.571 66 153.905 66C157.905 66 161.238 67.1333 163.905 69.4C166.705 71.6667 168.105 74.3333 168.105 77.4C168.105 81.8 166.971 85 164.705 87C162.438 88.8667 159.971 89.8 157.305 89.8C154.771 89.8 152.438 89.3333 150.305 88.4C148.305 87.4667 145.971 87 143.305 87C140.905 87 138.438 87.6 135.905 88.8C133.505 89.8667 131.238 91.6 129.105 94C127.105 96.4 125.438 99.4 124.105 103C122.905 106.467 122.305 110.6 122.305 115.4V162.8C122.305 166.267 121.171 169.2 118.905 171.6C116.638 173.867 113.771 175 110.305 175Z" fill="#6DC82A"/>
<path d="M264.423 68C267.89 68 270.757 69.2 273.023 71.6C275.29 73.8667 276.423 76.7333 276.423 80.2V131C276.423 145.133 272.49 156.333 264.623 164.6C256.757 172.867 245.423 177 230.623 177C215.823 177 204.49 172.867 196.623 164.6C188.89 156.333 185.023 145.133 185.023 131V80.2C185.023 76.7333 186.157 73.8667 188.423 71.6C190.69 69.2 193.557 68 197.023 68C200.49 68 203.357 69.2 205.623 71.6C207.89 73.8667 209.023 76.7333 209.023 80.2V131C209.023 139.133 210.823 145.2 214.423 149.2C218.023 153.067 223.423 155 230.623 155C237.957 155 243.423 153.067 247.023 149.2C250.623 145.2 252.423 139.133 252.423 131V80.2C252.423 76.7333 253.557 73.8667 255.823 71.6C258.09 69.2 260.957 68 264.423 68Z" fill="#6DC82A"/>
<path d="M303.606 70H351.006C354.206 70 356.873 71.0667 359.006 73.2C361.14 75.3333 362.206 78 362.206 81.2C362.206 84.2667 361.14 86.8667 359.006 89C356.873 91 354.206 92 351.006 92H303.606C300.406 92 297.74 90.9333 295.606 88.8C293.473 86.6667 292.406 84 292.406 80.8C292.406 77.7333 293.473 75.2 295.606 73.2C297.74 71.0667 300.406 70 303.606 70ZM325.006 45C328.473 45 331.273 46.2 333.406 48.6C335.673 50.8667 336.806 53.7333 336.806 57.2V146.2C336.806 148.067 337.14 149.6 337.806 150.8C338.606 152 339.606 152.867 340.806 153.4C342.14 153.933 343.54 154.2 345.006 154.2C346.606 154.2 348.073 153.933 349.406 153.4C350.74 152.733 352.273 152.4 354.006 152.4C355.873 152.4 357.54 153.267 359.006 155C360.606 156.733 361.406 159.133 361.406 162.2C361.406 165.933 359.34 169 355.206 171.4C351.206 173.8 346.873 175 342.206 175C339.406 175 336.273 174.8 332.806 174.4C329.473 173.867 326.273 172.733 323.206 171C320.273 169.133 317.806 166.333 315.806 162.6C313.806 158.867 312.806 153.733 312.806 147.2V57.2C312.806 53.7333 313.94 50.8667 316.206 48.6C318.606 46.2 321.54 45 325.006 45Z" fill="#6DC82A"/>
<path d="M406.842 162.8C406.842 166.267 405.709 169.2 403.442 171.6C401.176 173.867 398.309 175 394.842 175C391.376 175 388.509 173.867 386.242 171.6C383.976 169.2 382.842 166.267 382.842 162.8V80.2C382.842 76.7333 383.976 73.8667 386.242 71.6C388.509 69.2 391.376 68 394.842 68C398.309 68 401.176 69.2 403.442 71.6C405.709 73.8667 406.842 76.7333 406.842 80.2V162.8ZM394.642 55C390.109 55 386.909 54.2667 385.042 52.8C383.176 51.3333 382.242 48.7333 382.242 45V41.2C382.242 37.3333 383.242 34.7333 385.242 33.4C387.376 31.9333 390.576 31.2 394.842 31.2C399.509 31.2 402.776 31.9333 404.642 33.4C406.509 34.8667 407.442 37.4667 407.442 41.2V45C407.442 48.8667 406.442 51.5333 404.442 53C402.442 54.3333 399.176 55 394.642 55Z" fill="#6DC82A"/>
<path d="M486.508 27C489.441 27 492.308 27.4 495.108 28.2C497.908 29 500.241 30.3333 502.108 32.2C503.974 33.9333 504.908 36.2667 504.908 39.2C504.908 42.5333 503.908 45.2 501.908 47.2C500.041 49.0667 497.841 50 495.308 50C494.108 50 492.308 49.7333 489.908 49.2C487.508 48.5333 485.174 48.2 482.908 48.2C479.574 48.2 476.974 48.9333 475.108 50.4C473.374 51.8667 472.174 53.6 471.508 55.6C470.841 57.4667 470.508 59.1333 470.508 60.6V162.8C470.508 166.267 469.374 169.2 467.108 171.6C464.841 173.867 461.974 175 458.508 175C455.041 175 452.174 173.867 449.908 171.6C447.641 169.2 446.508 166.267 446.508 162.8V60.8C446.508 51.3333 449.841 43.3333 456.508 36.8C463.174 30.2667 473.174 27 486.508 27ZM488.708 70C491.908 70 494.574 71.0667 496.708 73.2C498.841 75.2 499.908 77.8 499.908 81C499.908 84.2 498.841 86.8667 496.708 89C494.574 91 491.908 92 488.708 92H435.708C432.508 92 429.841 91 427.708 89C425.574 86.8667 424.508 84.2 424.508 81C424.508 77.8 425.574 75.2 427.708 73.2C429.841 71.0667 432.508 70 435.708 70H488.708Z" fill="#6DC82A"/>
<path d="M563.158 177C551.825 177 541.958 174.667 533.558 170C525.291 165.2 518.891 158.733 514.358 150.6C509.958 142.467 507.758 133.267 507.758 123C507.758 111 510.158 100.8 514.958 92.4C519.891 83.8667 526.291 77.3333 534.158 72.8C542.024 68.2667 550.358 66 559.158 66C565.958 66 572.358 67.4 578.358 70.2C584.491 73 589.891 76.8667 594.558 81.8C599.224 86.6 602.891 92.2 605.558 98.6C608.358 105 609.758 111.8 609.758 119C609.624 122.2 608.358 124.8 605.958 126.8C603.558 128.8 600.758 129.8 597.558 129.8H521.158L515.158 109.8H588.558L584.158 113.8V108.4C583.891 104.533 582.491 101.067 579.958 98C577.558 94.9333 574.491 92.5333 570.758 90.8C567.158 88.9333 563.291 88 559.158 88C555.158 88 551.424 88.5333 547.958 89.6C544.491 90.6667 541.491 92.4667 538.958 95C536.424 97.5333 534.424 100.933 532.958 105.2C531.491 109.467 530.758 114.867 530.758 121.4C530.758 128.6 532.224 134.733 535.158 139.8C538.224 144.733 542.091 148.533 546.758 151.2C551.558 153.733 556.625 155 561.958 155C566.891 155 570.824 154.6 573.758 153.8C576.691 153 579.024 152.067 580.758 151C582.624 149.8 584.291 148.8 585.758 148C588.158 146.8 590.424 146.2 592.558 146.2C595.491 146.2 597.891 147.2 599.758 149.2C601.758 151.2 602.758 153.533 602.758 156.2C602.758 159.8 600.891 163.067 597.158 166C593.691 168.933 588.824 171.533 582.558 173.8C576.291 175.933 569.825 177 563.158 177Z" fill="#6DC82A"/>
<path d="M653.327 162.8C653.327 166.267 652.193 169.2 649.927 171.6C647.66 173.867 644.793 175 641.327 175C637.86 175 634.993 173.867 632.727 171.6C630.46 169.2 629.327 166.267 629.327 162.8V80.2C629.327 76.7333 630.46 73.8667 632.727 71.6C634.993 69.2 637.86 68 641.327 68C644.793 68 647.66 69.2 649.927 71.6C652.193 73.8667 653.327 76.7333 653.327 80.2V162.8ZM641.127 55C636.593 55 633.393 54.2667 631.527 52.8C629.66 51.3333 628.727 48.7333 628.727 45V41.2C628.727 37.3333 629.727 34.7333 631.727 33.4C633.86 31.9333 637.06 31.2 641.327 31.2C645.993 31.2 649.26 31.9333 651.127 33.4C652.993 34.8667 653.927 37.4667 653.927 41.2V45C653.927 48.8667 652.927 51.5333 650.927 53C648.927 54.3333 645.66 55 641.127 55Z" fill="#6DC82A"/>
<path d="M689.992 175C686.526 175 683.659 173.867 681.392 171.6C679.126 169.2 677.992 166.267 677.992 162.8V80.2C677.992 76.7333 679.126 73.8667 681.392 71.6C683.659 69.2 686.526 68 689.992 68C693.459 68 696.326 69.2 698.592 71.6C700.859 73.8667 701.992 76.7333 701.992 80.2V99L700.592 85.6C702.059 82.4 703.926 79.6 706.192 77.2C708.592 74.6667 711.259 72.6 714.192 71C717.126 69.2667 720.259 68 723.592 67.2C726.925 66.4 730.259 66 733.592 66C737.592 66 740.925 67.1333 743.592 69.4C746.392 71.6667 747.792 74.3333 747.792 77.4C747.792 81.8 746.659 85 744.392 87C742.126 88.8667 739.659 89.8 736.992 89.8C734.459 89.8 732.126 89.3333 729.992 88.4C727.992 87.4667 725.659 87 722.992 87C720.592 87 718.125 87.6 715.592 88.8C713.192 89.8667 710.926 91.6 708.792 94C706.792 96.4 705.125 99.4 703.792 103C702.592 106.467 701.992 110.6 701.992 115.4V162.8C701.992 166.267 700.859 169.2 698.592 171.6C696.326 173.867 693.459 175 689.992 175Z" fill="#6DC82A"/>
<path d="M66 27C68.9333 27 71.8 27.4 74.6 28.2C77.4 29 79.7333 30.3333 81.6 32.2C83.4667 33.9333 84.4 36.2667 84.4 39.2C84.4 42.5333 83.4 45.2 81.4 47.2C79.5333 49.0667 77.3333 50 74.8 50C73.6 50 71.8 49.7333 69.4 49.2C67 48.5333 64.6667 48.2 62.4 48.2C59.0667 48.2 56.4667 48.9333 54.6 50.4C52.8667 51.8667 51.6667 53.6 51 55.6C50.3333 57.4667 50 59.1333 50 60.6V162.8C50 166.267 48.8667 169.2 46.6 171.6C44.3333 173.867 41.4667 175 38 175C34.5333 175 31.6667 173.867 29.4 171.6C27.1333 169.2 26 166.267 26 162.8V60.8C26 51.3333 29.3333 43.3333 36 36.8C42.6667 30.2667 52.6667 27 66 27ZM68.2 70C71.4 70 74.0667 71.0667 76.2 73.2C78.3333 75.2 79.4 77.8 79.4 81C79.4 84.2 78.3333 86.8667 76.2 89C74.0667 91 71.4 92 68.2 92H15.2C12 92 9.33333 91 7.2 89C5.06667 86.8667 4 84.2 4 81C4 77.8 5.06667 75.2 7.2 73.2C9.33333 71.0667 12 70 15.2 70H68.2Z" stroke="#6DC82A" stroke-width="8" mask="url(#path-1-outside-1_102_923)"/>
<path d="M110.305 175C106.838 175 103.971 173.867 101.705 171.6C99.438 169.2 98.3047 166.267 98.3047 162.8V80.2C98.3047 76.7333 99.438 73.8667 101.705 71.6C103.971 69.2 106.838 68 110.305 68C113.771 68 116.638 69.2 118.905 71.6C121.171 73.8667 122.305 76.7333 122.305 80.2V99L120.905 85.6C122.371 82.4 124.238 79.6 126.505 77.2C128.905 74.6667 131.571 72.6 134.505 71C137.438 69.2667 140.571 68 143.905 67.2C147.238 66.4 150.571 66 153.905 66C157.905 66 161.238 67.1333 163.905 69.4C166.705 71.6667 168.105 74.3333 168.105 77.4C168.105 81.8 166.971 85 164.705 87C162.438 88.8667 159.971 89.8 157.305 89.8C154.771 89.8 152.438 89.3333 150.305 88.4C148.305 87.4667 145.971 87 143.305 87C140.905 87 138.438 87.6 135.905 88.8C133.505 89.8667 131.238 91.6 129.105 94C127.105 96.4 125.438 99.4 124.105 103C122.905 106.467 122.305 110.6 122.305 115.4V162.8C122.305 166.267 121.171 169.2 118.905 171.6C116.638 173.867 113.771 175 110.305 175Z" stroke="#6DC82A" stroke-width="8" mask="url(#path-1-outside-1_102_923)"/>
<path d="M264.423 68C267.89 68 270.757 69.2 273.023 71.6C275.29 73.8667 276.423 76.7333 276.423 80.2V131C276.423 145.133 272.49 156.333 264.623 164.6C256.757 172.867 245.423 177 230.623 177C215.823 177 204.49 172.867 196.623 164.6C188.89 156.333 185.023 145.133 185.023 131V80.2C185.023 76.7333 186.157 73.8667 188.423 71.6C190.69 69.2 193.557 68 197.023 68C200.49 68 203.357 69.2 205.623 71.6C207.89 73.8667 209.023 76.7333 209.023 80.2V131C209.023 139.133 210.823 145.2 214.423 149.2C218.023 153.067 223.423 155 230.623 155C237.957 155 243.423 153.067 247.023 149.2C250.623 145.2 252.423 139.133 252.423 131V80.2C252.423 76.7333 253.557 73.8667 255.823 71.6C258.09 69.2 260.957 68 264.423 68Z" stroke="#6DC82A" stroke-width="8" mask="url(#path-1-outside-1_102_923)"/>
<path d="M303.606 70H351.006C354.206 70 356.873 71.0667 359.006 73.2C361.14 75.3333 362.206 78 362.206 81.2C362.206 84.2667 361.14 86.8667 359.006 89C356.873 91 354.206 92 351.006 92H303.606C300.406 92 297.74 90.9333 295.606 88.8C293.473 86.6667 292.406 84 292.406 80.8C292.406 77.7333 293.473 75.2 295.606 73.2C297.74 71.0667 300.406 70 303.606 70ZM325.006 45C328.473 45 331.273 46.2 333.406 48.6C335.673 50.8667 336.806 53.7333 336.806 57.2V146.2C336.806 148.067 337.14 149.6 337.806 150.8C338.606 152 339.606 152.867 340.806 153.4C342.14 153.933 343.54 154.2 345.006 154.2C346.606 154.2 348.073 153.933 349.406 153.4C350.74 152.733 352.273 152.4 354.006 152.4C355.873 152.4 357.54 153.267 359.006 155C360.606 156.733 361.406 159.133 361.406 162.2C361.406 165.933 359.34 169 355.206 171.4C351.206 173.8 346.873 175 342.206 175C339.406 175 336.273 174.8 332.806 174.4C329.473 173.867 326.273 172.733 323.206 171C320.273 169.133 317.806 166.333 315.806 162.6C313.806 158.867 312.806 153.733 312.806 147.2V57.2C312.806 53.7333 313.94 50.8667 316.206 48.6C318.606 46.2 321.54 45 325.006 45Z" stroke="#6DC82A" stroke-width="8" mask="url(#path-1-outside-1_102_923)"/>
<path d="M406.842 162.8C406.842 166.267 405.709 169.2 403.442 171.6C401.176 173.867 398.309 175 394.842 175C391.376 175 388.509 173.867 386.242 171.6C383.976 169.2 382.842 166.267 382.842 162.8V80.2C382.842 76.7333 383.976 73.8667 386.242 71.6C388.509 69.2 391.376 68 394.842 68C398.309 68 401.176 69.2 403.442 71.6C405.709 73.8667 406.842 76.7333 406.842 80.2V162.8ZM394.642 55C390.109 55 386.909 54.2667 385.042 52.8C383.176 51.3333 382.242 48.7333 382.242 45V41.2C382.242 37.3333 383.242 34.7333 385.242 33.4C387.376 31.9333 390.576 31.2 394.842 31.2C399.509 31.2 402.776 31.9333 404.642 33.4C406.509 34.8667 407.442 37.4667 407.442 41.2V45C407.442 48.8667 406.442 51.5333 404.442 53C402.442 54.3333 399.176 55 394.642 55Z" stroke="#6DC82A" stroke-width="8" mask="url(#path-1-outside-1_102_923)"/>
<path d="M486.508 27C489.441 27 492.308 27.4 495.108 28.2C497.908 29 500.241 30.3333 502.108 32.2C503.974 33.9333 504.908 36.2667 504.908 39.2C504.908 42.5333 503.908 45.2 501.908 47.2C500.041 49.0667 497.841 50 495.308 50C494.108 50 492.308 49.7333 489.908 49.2C487.508 48.5333 485.174 48.2 482.908 48.2C479.574 48.2 476.974 48.9333 475.108 50.4C473.374 51.8667 472.174 53.6 471.508 55.6C470.841 57.4667 470.508 59.1333 470.508 60.6V162.8C470.508 166.267 469.374 169.2 467.108 171.6C464.841 173.867 461.974 175 458.508 175C455.041 175 452.174 173.867 449.908 171.6C447.641 169.2 446.508 166.267 446.508 162.8V60.8C446.508 51.3333 449.841 43.3333 456.508 36.8C463.174 30.2667 473.174 27 486.508 27ZM488.708 70C491.908 70 494.574 71.0667 496.708 73.2C498.841 75.2 499.908 77.8 499.908 81C499.908 84.2 498.841 86.8667 496.708 89C494.574 91 491.908 92 488.708 92H435.708C432.508 92 429.841 91 427.708 89C425.574 86.8667 424.508 84.2 424.508 81C424.508 77.8 425.574 75.2 427.708 73.2C429.841 71.0667 432.508 70 435.708 70H488.708Z" stroke="#6DC82A" stroke-width="8" mask="url(#path-1-outside-1_102_923)"/>
<path d="M563.158 177C551.825 177 541.958 174.667 533.558 170C525.291 165.2 518.891 158.733 514.358 150.6C509.958 142.467 507.758 133.267 507.758 123C507.758 111 510.158 100.8 514.958 92.4C519.891 83.8667 526.291 77.3333 534.158 72.8C542.024 68.2667 550.358 66 559.158 66C565.958 66 572.358 67.4 578.358 70.2C584.491 73 589.891 76.8667 594.558 81.8C599.224 86.6 602.891 92.2 605.558 98.6C608.358 105 609.758 111.8 609.758 119C609.624 122.2 608.358 124.8 605.958 126.8C603.558 128.8 600.758 129.8 597.558 129.8H521.158L515.158 109.8H588.558L584.158 113.8V108.4C583.891 104.533 582.491 101.067 579.958 98C577.558 94.9333 574.491 92.5333 570.758 90.8C567.158 88.9333 563.291 88 559.158 88C555.158 88 551.424 88.5333 547.958 89.6C544.491 90.6667 541.491 92.4667 538.958 95C536.424 97.5333 534.424 100.933 532.958 105.2C531.491 109.467 530.758 114.867 530.758 121.4C530.758 128.6 532.224 134.733 535.158 139.8C538.224 144.733 542.091 148.533 546.758 151.2C551.558 153.733 556.625 155 561.958 155C566.891 155 570.824 154.6 573.758 153.8C576.691 153 579.024 152.067 580.758 151C582.624 149.8 584.291 148.8 585.758 148C588.158 146.8 590.424 146.2 592.558 146.2C595.491 146.2 597.891 147.2 599.758 149.2C601.758 151.2 602.758 153.533 602.758 156.2C602.758 159.8 600.891 163.067 597.158 166C593.691 168.933 588.824 171.533 582.558 173.8C576.291 175.933 569.825 177 563.158 177Z" stroke="#6DC82A" stroke-width="8" mask="url(#path-1-outside-1_102_923)"/>
<path d="M653.327 162.8C653.327 166.267 652.193 169.2 649.927 171.6C647.66 173.867 644.793 175 641.327 175C637.86 175 634.993 173.867 632.727 171.6C630.46 169.2 629.327 166.267 629.327 162.8V80.2C629.327 76.7333 630.46 73.8667 632.727 71.6C634.993 69.2 637.86 68 641.327 68C644.793 68 647.66 69.2 649.927 71.6C652.193 73.8667 653.327 76.7333 653.327 80.2V162.8ZM641.127 55C636.593 55 633.393 54.2667 631.527 52.8C629.66 51.3333 628.727 48.7333 628.727 45V41.2C628.727 37.3333 629.727 34.7333 631.727 33.4C633.86 31.9333 637.06 31.2 641.327 31.2C645.993 31.2 649.26 31.9333 651.127 33.4C652.993 34.8667 653.927 37.4667 653.927 41.2V45C653.927 48.8667 652.927 51.5333 650.927 53C648.927 54.3333 645.66 55 641.127 55Z" stroke="#6DC82A" stroke-width="8" mask="url(#path-1-outside-1_102_923)"/>
<path d="M689.992 175C686.526 175 683.659 173.867 681.392 171.6C679.126 169.2 677.992 166.267 677.992 162.8V80.2C677.992 76.7333 679.126 73.8667 681.392 71.6C683.659 69.2 686.526 68 689.992 68C693.459 68 696.326 69.2 698.592 71.6C700.859 73.8667 701.992 76.7333 701.992 80.2V99L700.592 85.6C702.059 82.4 703.926 79.6 706.192 77.2C708.592 74.6667 711.259 72.6 714.192 71C717.126 69.2667 720.259 68 723.592 67.2C726.925 66.4 730.259 66 733.592 66C737.592 66 740.925 67.1333 743.592 69.4C746.392 71.6667 747.792 74.3333 747.792 77.4C747.792 81.8 746.659 85 744.392 87C742.126 88.8667 739.659 89.8 736.992 89.8C734.459 89.8 732.126 89.3333 729.992 88.4C727.992 87.4667 725.659 87 722.992 87C720.592 87 718.125 87.6 715.592 88.8C713.192 89.8667 710.926 91.6 708.792 94C706.792 96.4 705.125 99.4 703.792 103C702.592 106.467 701.992 110.6 701.992 115.4V162.8C701.992 166.267 700.859 169.2 698.592 171.6C696.326 173.867 693.459 175 689.992 175Z" stroke="#6DC82A" stroke-width="8" mask="url(#path-1-outside-1_102_923)"/>
<path fill-rule="evenodd" clip-rule="evenodd" d="M755.252 1.6758C750.09 15.1268 761.616 42.1118 776.623 51.7118C787.225 58.4938 808.1 63.0598 809.347 58.8698C809.551 58.1828 810.516 55.3698 811.49 52.6198C818.02 34.1928 802.336 10.3388 778.631 2.6448C769.245 -0.401203 756.256 -0.939203 755.252 1.6758Z" fill="#6DC82A"/>
<path d="M848.931 22.7686C828.95 26.2036 812.187 41.7096 806.305 62.1976C804.373 68.9259 803.397 71.7772 804.399 72.979C805.236 73.9827 807.453 73.8356 811.646 73.8356C820.512 73.8356 821.683 73.0206 823.719 65.4366C826.725 54.2326 844.16 39.8436 854.737 39.8376C859.433 39.8356 864.318 35.2446 864.318 30.8356C864.318 29.1386 863.19 26.8316 861.438 24.9416C858.419 21.6866 856.831 21.4106 848.931 22.7686Z" fill="#8E6D53"/>
<path d="M848.931 22.7686C828.95 26.2036 812.187 41.7096 806.305 62.1976C804.373 68.9259 803.397 71.7772 804.399 72.979C805.236 73.9827 807.453 73.8356 811.646 73.8356C820.512 73.8356 821.683 73.0206 823.719 65.4366C826.725 54.2326 844.16 39.8436 854.737 39.8376C859.433 39.8356 864.318 35.2446 864.318 30.8356C864.318 29.1386 863.19 26.8316 861.438 24.9416C858.419 21.6866 856.831 21.4106 848.931 22.7686Z" stroke="#8E6D53"/>
<path d="M862.614 173.014L862.634 172.994L862.654 172.973C865.29 170.182 866.6 166.749 866.6 162.8V78.2C866.6 74.1408 865.304 70.6751 862.614 67.9858C859.94 65.3116 856.549 64 852.6 64C848.624 64 845.228 65.3978 842.566 68.206C840.772 70.0063 839.595 72.1302 839.018 74.53C838.624 74.2196 838.219 73.9108 837.805 73.6037C834.153 70.7972 829.835 68.5086 824.879 66.7189C819.836 64.8978 814.337 64 808.4 64C799.09 64 790.578 66.5068 782.915 71.5196C775.266 76.3903 769.173 83.1953 764.628 91.872L764.628 91.872L764.623 91.8827C760.186 100.479 758 110.403 758 121.6C758 132.668 760.188 142.587 764.617 151.306L764.626 151.323L764.635 151.34C769.186 159.891 775.348 166.687 783.118 171.682L783.129 171.689L783.14 171.696C790.939 176.57 799.643 179 809.2 179C814.48 179 819.387 178.166 823.902 176.473L823.918 176.467L823.933 176.461C828.47 174.673 832.433 172.525 835.8 170C837.024 169.082 838.163 168.157 839.213 167.226C839.84 169.358 840.95 171.283 842.546 172.973L842.566 172.994L842.586 173.014C845.26 175.688 848.651 177 852.6 177C856.549 177 859.94 175.688 862.614 173.014ZM836.011 137.706L836.002 137.725L835.993 137.744C833.738 142.503 830.571 146.216 826.491 148.936C822.455 151.627 817.717 153 812.2 153C806.827 153 802.153 151.632 798.109 148.936C794.025 146.213 790.787 142.494 788.398 137.725C786.145 132.96 785 127.598 785 121.6C785 115.462 786.148 110.034 788.398 105.275C790.787 100.506 794.025 96.787 798.109 94.0641C802.153 91.3683 806.827 90 812.2 90C817.717 90 822.455 91.3734 826.491 94.0641C830.571 96.7841 833.738 100.497 835.993 105.256L836.002 105.275L836.011 105.294C838.389 110.049 839.6 115.47 839.6 121.6C839.6 127.59 838.391 132.945 836.011 137.706Z" fill="#E14B4B" stroke="#E14B4B" stroke-width="4"/>
</svg>
