<svg width="46" height="40" viewBox="0 0 46 40" fill="none" xmlns="http://www.w3.org/2000/svg">
<path d="M24.7782 30.6726L30.0867 25.9668C30.4493 25.6453 31.0198 25.6006 31.4404 25.8607L39.4856 30.8348C40.0259 31.1688 40.0943 31.8546 39.6285 32.2676L37.2739 34.3549C36.5223 35.0212 35.4498 35.3097 34.4275 35.0515C31.0141 34.1895 22.9263 31.6617 16.3571 25.8383C9.78793 20.0148 6.93643 12.8452 5.96404 9.81935C5.67281 8.9131 5.99825 7.96238 6.74989 7.29606L9.10449 5.20877C9.5703 4.79583 10.3439 4.85648 10.7208 5.33547L16.3319 12.4673C16.6252 12.8402 16.5748 13.3459 16.2122 13.6673L10.9037 18.3732" stroke="#6DC82A" stroke-linecap="round"/>
</svg>
