<svg width="17" height="17" viewBox="0 0 17 17" fill="none" xmlns="http://www.w3.org/2000/svg">
<path d="M11.3333 8.5V8C11.0572 8 10.8333 8.22386 10.8333 8.5H11.3333ZM14.875 8.5V9C15.0772 9 15.2595 8.87818 15.3369 8.69134C15.4143 8.5045 15.3716 8.28945 15.2286 8.14645L14.875 8.5ZM11.3333 12.0417V12.5417C11.6095 12.5417 11.8333 12.3178 11.8333 12.0417H11.3333ZM5.66667 12.0417H5.16667C5.16667 12.3178 5.39052 12.5417 5.66667 12.5417V12.0417ZM5.66667 8.5H6.16667C6.16667 8.22386 5.94281 8 5.66667 8V8.5ZM2.125 8.5L1.77145 8.14645C1.62845 8.28945 1.58567 8.5045 1.66306 8.69134C1.74045 8.87818 1.92277 9 2.125 9V8.5ZM8.5 2.125L8.85355 1.77145C8.65829 1.57618 8.34171 1.57618 8.14645 1.77145L8.5 2.125ZM11.3333 9H14.875V8H11.3333V9ZM11.8333 12.0417V8.5H10.8333V12.0417H11.8333ZM5.66667 12.5417H11.3333V11.5417H5.66667V12.5417ZM5.16667 8.5V12.0417H6.16667V8.5H5.16667ZM2.125 9H5.66667V8H2.125V9ZM8.14645 1.77145L1.77145 8.14645L2.47855 8.85355L8.85355 2.47855L8.14645 1.77145ZM15.2286 8.14645L8.85355 1.77145L8.14645 2.47855L14.5214 8.85355L15.2286 8.14645Z" fill="#C4C4C4"/>
<path d="M14.1668 14.8748H2.8335" stroke="#C4C4C4" stroke-linecap="round"/>
</svg>
